<mxfile host="app.diagrams.net" modified="2023-11-01T12:00:00.000Z" agent="Mozilla/5.0" etag="abc123" version="21.6.6">
  <diagram name="Страница профиля пользователя" id="user-profile-page">
    <mxGraphModel dx="1422" dy="798" grid="1" gridSize="10" guides="1" tooltips="1" connect="1" arrows="1" fold="1" page="1" pageScale="1" pageWidth="1169" pageHeight="827" math="0" shadow="0">
      <root>
        <mxCell id="0" />
        <mxCell id="1" parent="0" />
        <mxCell id="header" value="" style="rounded=0;whiteSpace=wrap;html=1;fillColor=#f5f5f5;strokeColor=#666666;fontColor=#333333;" vertex="1" parent="1">
          <mxGeometry x="40" y="40" width="1080" height="60" as="geometry" />
        </mxCell>
        <mxCell id="logo" value="GeekHeaven" style="text;html=1;strokeColor=none;fillColor=none;align=center;verticalAlign=middle;whiteSpace=wrap;rounded=0;fontStyle=1;fontSize=24;" vertex="1" parent="1">
          <mxGeometry x="60" y="55" width="160" height="30" as="geometry" />
        </mxCell>
        <mxCell id="search" value="Поиск..." style="rounded=1;whiteSpace=wrap;html=1;align=left;spacingLeft=10;fillColor=#ffffff;strokeColor=#999999;" vertex="1" parent="1">
          <mxGeometry x="400" y="55" width="360" height="30" as="geometry" />
        </mxCell>
        <mxCell id="profile" value="Профиль" style="text;html=1;strokeColor=none;fillColor=none;align=center;verticalAlign=middle;whiteSpace=wrap;rounded=0;fontStyle=1" vertex="1" parent="1">
          <mxGeometry x="1000" y="55" width="60" height="30" as="geometry" />
        </mxCell>
        <mxCell id="nav" value="" style="rounded=0;whiteSpace=wrap;html=1;fillColor=#f9f9f9;strokeColor=#cccccc;" vertex="1" parent="1">
          <mxGeometry x="40" y="100" width="200" height="680" as="geometry" />
        </mxCell>
        <mxCell id="nav_dashboard" value="Главная" style="text;html=1;strokeColor=none;fillColor=none;align=left;verticalAlign=middle;whiteSpace=wrap;rounded=0;spacingLeft=10;" vertex="1" parent="1">
          <mxGeometry x="40" y="120" width="200" height="30" as="geometry" />
        </mxCell>
        <mxCell id="nav_library" value="Моя библиотека" style="text;html=1;strokeColor=none;fillColor=none;align=left;verticalAlign=middle;whiteSpace=wrap;rounded=0;spacingLeft=10;" vertex="1" parent="1">
          <mxGeometry x="40" y="150" width="200" height="30" as="geometry" />
        </mxCell>
        <mxCell id="nav_collections" value="Мои коллекции" style="text;html=1;strokeColor=none;fillColor=none;align=left;verticalAlign=middle;whiteSpace=wrap;rounded=0;spacingLeft=10;" vertex="1" parent="1">
          <mxGeometry x="40" y="180" width="200" height="30" as="geometry" />
        </mxCell>
        <mxCell id="nav_categories" value="Категории контента" style="text;html=1;strokeColor=none;fillColor=none;align=left;verticalAlign=middle;whiteSpace=wrap;rounded=0;fontStyle=1;spacingLeft=10;" vertex="1" parent="1">
          <mxGeometry x="40" y="230" width="200" height="30" as="geometry" />
        </mxCell>
        <mxCell id="nav_games" value="Игры" style="text;html=1;strokeColor=none;fillColor=none;align=left;verticalAlign=middle;whiteSpace=wrap;rounded=0;spacingLeft=10;" vertex="1" parent="1">
          <mxGeometry x="40" y="260" width="200" height="30" as="geometry" />
        </mxCell>
        <mxCell id="nav_movies" value="Фильмы и сериалы" style="text;html=1;strokeColor=none;fillColor=none;align=left;verticalAlign=middle;whiteSpace=wrap;rounded=0;spacingLeft=10;" vertex="1" parent="1">
          <mxGeometry x="40" y="290" width="200" height="30" as="geometry" />
        </mxCell>
        <mxCell id="nav_books" value="Книги" style="text;html=1;strokeColor=none;fillColor=none;align=left;verticalAlign=middle;whiteSpace=wrap;rounded=0;spacingLeft=10;" vertex="1" parent="1">
          <mxGeometry x="40" y="320" width="200" height="30" as="geometry" />
        </mxCell>
        <mxCell id="nav_comics" value="Комиксы и манга" style="text;html=1;strokeColor=none;fillColor=none;align=left;verticalAlign=middle;whiteSpace=wrap;rounded=0;spacingLeft=10;" vertex="1" parent="1">
          <mxGeometry x="40" y="350" width="200" height="30" as="geometry" />
        </mxCell>
        <mxCell id="nav_anime" value="Аниме" style="text;html=1;strokeColor=none;fillColor=none;align=left;verticalAlign=middle;whiteSpace=wrap;rounded=0;spacingLeft=10;" vertex="1" parent="1">
          <mxGeometry x="40" y="380" width="200" height="30" as="geometry" />
        </mxCell>
        <mxCell id="content" value="" style="rounded=0;whiteSpace=wrap;html=1;fillColor=#ffffff;strokeColor=#f0f0f0;" vertex="1" parent="1">
          <mxGeometry x="240" y="100" width="880" height="680" as="geometry" />
        </mxCell>
        <mxCell id="profile_header" value="" style="rounded=0;whiteSpace=wrap;html=1;fillColor=#f9f9f9;strokeColor=#cccccc;" vertex="1" parent="1">
          <mxGeometry x="260" y="120" width="840" height="180" as="geometry" />
        </mxCell>
        <mxCell id="profile_avatar" value="" style="ellipse;whiteSpace=wrap;html=1;aspect=fixed;fillColor=#e6e6e6;strokeColor=#999999;" vertex="1" parent="1">
          <mxGeometry x="300" y="140" width="120" height="120" as="geometry" />
        </mxCell>
        <mxCell id="profile_username" value="Username" style="text;html=1;strokeColor=none;fillColor=none;align=left;verticalAlign=middle;whiteSpace=wrap;rounded=0;fontStyle=1;fontSize=24;" vertex="1" parent="1">
          <mxGeometry x="440" y="140" width="300" height="40" as="geometry" />
        </mxCell>
        <mxCell id="profile_joined" value="На сайте с: 01.01.2023" style="text;html=1;strokeColor=none;fillColor=none;align=left;verticalAlign=middle;whiteSpace=wrap;rounded=0;" vertex="1" parent="1">
          <mxGeometry x="440" y="180" width="200" height="20" as="geometry" />
        </mxCell>
        <mxCell id="profile_description" value="Описание пользователя. Здесь может быть текст, который пользователь добавил в свой профиль, рассказывающий о его интересах, предпочтениях и т.д." style="text;html=1;strokeColor=none;fillColor=none;align=left;verticalAlign=top;whiteSpace=wrap;rounded=0;" vertex="1" parent="1">
          <mxGeometry x="440" y="210" width="640" height="60" as="geometry" />
        </mxCell>
        <mxCell id="profile_edit_button" value="Редактировать профиль" style="rounded=1;whiteSpace=wrap;html=1;fillColor=#dae8fc;strokeColor=#6c8ebf;" vertex="1" parent="1">
          <mxGeometry x="940" y="140" width="140" height="30" as="geometry" />
        </mxCell>
        <mxCell id="profile_stats" value="" style="rounded=0;whiteSpace=wrap;html=1;fillColor=#f5f5f5;strokeColor=#666666;" vertex="1" parent="1">
          <mxGeometry x="260" y="320" width="840" height="80" as="geometry" />
        </mxCell>
        <mxCell id="stats_title" value="Статистика" style="text;html=1;strokeColor=none;fillColor=none;align=left;verticalAlign=middle;whiteSpace=wrap;rounded=0;fontStyle=1;fontSize=14;" vertex="1" parent="1">
          <mxGeometry x="280" y="330" width="100" height="20" as="geometry" />
        </mxCell>
        <mxCell id="stats_games" value="Игры: 15" style="text;html=1;strokeColor=none;fillColor=none;align=center;verticalAlign=middle;whiteSpace=wrap;rounded=0;" vertex="1" parent="1">
          <mxGeometry x="280" y="360" width="100" height="20" as="geometry" />
        </mxCell>
        <mxCell id="stats_movies" value="Фильмы: 42" style="text;html=1;strokeColor=none;fillColor=none;align=center;verticalAlign=middle;whiteSpace=wrap;rounded=0;" vertex="1" parent="1">
          <mxGeometry x="380" y="360" width="100" height="20" as="geometry" />
        </mxCell>
        <mxCell id="stats_series" value="Сериалы: 12" style="text;html=1;strokeColor=none;fillColor=none;align=center;verticalAlign=middle;whiteSpace=wrap;rounded=0;" vertex="1" parent="1">
          <mxGeometry x="480" y="360" width="100" height="20" as="geometry" />
        </mxCell>
        <mxCell id="stats_books" value="Книги: 28" style="text;html=1;strokeColor=none;fillColor=none;align=center;verticalAlign=middle;whiteSpace=wrap;rounded=0;" vertex="1" parent="1">
          <mxGeometry x="580" y="360" width="100" height="20" as="geometry" />
        </mxCell>
        <mxCell id="stats_comics" value="Комиксы: 7" style="text;html=1;strokeColor=none;fillColor=none;align=center;verticalAlign=middle;whiteSpace=wrap;rounded=0;" vertex="1" parent="1">
          <mxGeometry x="680" y="360" width="100" height="20" as="geometry" />
        </mxCell>
        <mxCell id="stats_anime" value="Аниме: 23" style="text;html=1;strokeColor=none;fillColor=none;align=center;verticalAlign=middle;whiteSpace=wrap;rounded=0;" vertex="1" parent="1">
          <mxGeometry x="780" y="360" width="100" height="20" as="geometry" />
        </mxCell>
        <mxCell id="stats_reviews" value="Отзывы: 35" style="text;html=1;strokeColor=none;fillColor=none;align=center;verticalAlign=middle;whiteSpace=wrap;rounded=0;" vertex="1" parent="1">
          <mxGeometry x="880" y="360" width="100" height="20" as="geometry" />
        </mxCell>
        <mxCell id="achievements_title" value="Достижения" style="text;html=1;strokeColor=none;fillColor=none;align=left;verticalAlign=middle;whiteSpace=wrap;rounded=0;fontStyle=1;fontSize=18;" vertex="1" parent="1">
          <mxGeometry x="260" y="420" width="300" height="30" as="geometry" />
        </mxCell>
        <mxCell id="achievements_container" value="" style="rounded=0;whiteSpace=wrap;html=1;fillColor=#f5f5f5;strokeColor=#666666;" vertex="1" parent="1">
          <mxGeometry x="260" y="460" width="840" height="120" as="geometry" />
        </mxCell>
        <mxCell id="achievement_1" value="" style="ellipse;whiteSpace=wrap;html=1;aspect=fixed;fillColor=#dae8fc;strokeColor=#6c8ebf;" vertex="1" parent="1">
          <mxGeometry x="280" y="480" width="60" height="60" as="geometry" />
        </mxCell>
        <mxCell id="achievement_1_icon" value="🎮" style="text;html=1;strokeColor=none;fillColor=none;align=center;verticalAlign=middle;whiteSpace=wrap;rounded=0;fontSize=24;" vertex="1" parent="1">
          <mxGeometry x="280" y="495" width="60" height="30" as="geometry" />
        </mxCell>
        <mxCell id="achievement_1_title" value="Геймер" style="text;html=1;strokeColor=none;fillColor=none;align=center;verticalAlign=middle;whiteSpace=wrap;rounded=0;fontStyle=1;fontSize=10;" vertex="1" parent="1">
          <mxGeometry x="280" y="545" width="60" height="20" as="geometry" />
        </mxCell>
        <mxCell id="achievement_2" value="" style="ellipse;whiteSpace=wrap;html=1;aspect=fixed;fillColor=#d5e8d4;strokeColor=#82b366;" vertex="1" parent="1">
          <mxGeometry x="360" y="480" width="60" height="60" as="geometry" />
        </mxCell>
        <mxCell id="achievement_2_icon" value="📚" style="text;html=1;strokeColor=none;fillColor=none;align=center;verticalAlign=middle;whiteSpace=wrap;rounded=0;fontSize=24;" vertex="1" parent="1">
          <mxGeometry x="360" y="495" width="60" height="30" as="geometry" />
        </mxCell>
        <mxCell id="achievement_2_title" value="Книжный червь" style="text;html=1;strokeColor=none;fillColor=none;align=center;verticalAlign=middle;whiteSpace=wrap;rounded=0;fontStyle=1;fontSize=10;" vertex="1" parent="1">
          <mxGeometry x="360" y="545" width="60" height="20" as="geometry" />
        </mxCell>
        <mxCell id="achievement_3" value="" style="ellipse;whiteSpace=wrap;html=1;aspect=fixed;fillColor=#ffe6cc;strokeColor=#d79b00;" vertex="1" parent="1">
          <mxGeometry x="440" y="480" width="60" height="60" as="geometry" />
        </mxCell>
        <mxCell id="achievement_3_icon" value="🎬" style="text;html=1;strokeColor=none;fillColor=none;align=center;verticalAlign=middle;whiteSpace=wrap;rounded=0;fontSize=24;" vertex="1" parent="1">
          <mxGeometry x="440" y="495" width="60" height="30" as="geometry" />
        </mxCell>
        <mxCell id="achievement_3_title" value="Киноман" style="text;html=1;strokeColor=none;fillColor=none;align=center;verticalAlign=middle;whiteSpace=wrap;rounded=0;fontStyle=1;fontSize=10;" vertex="1" parent="1">
          <mxGeometry x="440" y="545" width="60" height="20" as="geometry" />
        </mxCell>
        <mxCell id="achievement_4" value="" style="ellipse;whiteSpace=wrap;html=1;aspect=fixed;fillColor=#e1d5e7;strokeColor=#9673a6;" vertex="1" parent="1">
          <mxGeometry x="520" y="480" width="60" height="60" as="geometry" />
        </mxCell>
        <mxCell id="achievement_4_icon" value="📺" style="text;html=1;strokeColor=none;fillColor=none;align=center;verticalAlign=middle;whiteSpace=wrap;rounded=0;fontSize=24;" vertex="1" parent="1">
          <mxGeometry x="520" y="495" width="60" height="30" as="geometry" />
        </mxCell>
        <mxCell id="achievement_4_title" value="Сериальный маньяк" style="text;html=1;strokeColor=none;fillColor=none;align=center;verticalAlign=middle;whiteSpace=wrap;rounded=0;fontStyle=1;fontSize=10;" vertex="1" parent="1">
          <mxGeometry x="520" y="545" width="60" height="20" as="geometry" />
        </mxCell>
        <mxCell id="achievement_5" value="" style="ellipse;whiteSpace=wrap;html=1;aspect=fixed;fillColor=#f8cecc;strokeColor=#b85450;" vertex="1" parent="1">
          <mxGeometry x="600" y="480" width="60" height="60" as="geometry" />
        </mxCell>
        <mxCell id="achievement_5_icon" value="🎭" style="text;html=1;strokeColor=none;fillColor=none;align=center;verticalAlign=middle;whiteSpace=wrap;rounded=0;fontSize=24;" vertex="1" parent="1">
          <mxGeometry x="600" y="495" width="60" height="30" as="geometry" />
        </mxCell>
        <mxCell id="achievement_5_title" value="Критик" style="text;html=1;strokeColor=none;fillColor=none;align=center;verticalAlign=middle;whiteSpace=wrap;rounded=0;fontStyle=1;fontSize=10;" vertex="1" parent="1">
          <mxGeometry x="600" y="545" width="60" height="20" as="geometry" />
        </mxCell>
        <mxCell id="achievement_more" value="Показать все" style="text;html=1;strokeColor=none;fillColor=none;align=center;verticalAlign=middle;whiteSpace=wrap;rounded=0;fontColor=#0066CC;" vertex="1" parent="1">
          <mxGeometry x="940" y="545" width="140" height="20" as="geometry" />
        </mxCell>
        <mxCell id="achievements_share" value="Поделиться" style="rounded=1;whiteSpace=wrap;html=1;fillColor=#dae8fc;strokeColor=#6c8ebf;" vertex="1" parent="1">
          <mxGeometry x="840" y="485" width="90" height="25" as="geometry" />
        </mxCell>
        <mxCell id="achievements_progress_label" value="Общий прогресс:" style="text;html=1;strokeColor=none;fillColor=none;align=left;verticalAlign=middle;whiteSpace=wrap;rounded=0;" vertex="1" parent="1">
          <mxGeometry x="680" y="485" width="100" height="20" as="geometry" />
        </mxCell>
        <mxCell id="achievements_progress_bar" value="" style="rounded=1;whiteSpace=wrap;html=1;fillColor=#d5e8d4;strokeColor=#82b366;" vertex="1" parent="1">
          <mxGeometry x="680" y="505" width="150" height="10" as="geometry" />
        </mxCell>
        <mxCell id="achievements_progress_value" value="15/50" style="text;html=1;strokeColor=none;fillColor=none;align=left;verticalAlign=middle;whiteSpace=wrap;rounded=0;fontSize=10;" vertex="1" parent="1">
          <mxGeometry x="680" y="515" width="100" height="20" as="geometry" />
        </mxCell>
        <mxCell id="collections_title" value="Публичные коллекции" style="text;html=1;strokeColor=none;fillColor=none;align=left;verticalAlign=middle;whiteSpace=wrap;rounded=0;fontStyle=1;fontSize=18;" vertex="1" parent="1">
          <mxGeometry x="260" y="600" width="300" height="30" as="geometry" />
        </mxCell>
        <mxCell id="collection_1" value="" style="rounded=1;whiteSpace=wrap;html=1;fillColor=#f9f9f9;strokeColor=#cccccc;" vertex="1" parent="1">
          <mxGeometry x="260" y="640" width="400" height="100" as="geometry" />
        </mxCell>
        <mxCell id="collection_1_title" value="Название коллекции 1" style="text;html=1;strokeColor=none;fillColor=none;align=left;verticalAlign=middle;whiteSpace=wrap;rounded=0;fontStyle=1;fontSize=14;" vertex="1" parent="1">
          <mxGeometry x="280" y="650" width="360" height="20" as="geometry" />
        </mxCell>
        <mxCell id="collection_1_desc" value="Описание коллекции. Краткая информация о том, что включено в эту коллекцию и почему она была создана." style="text;html=1;strokeColor=none;fillColor=none;align=left;verticalAlign=top;whiteSpace=wrap;rounded=0;fontSize=11;" vertex="1" parent="1">
          <mxGeometry x="280" y="680" width="360" height="40" as="geometry" />
        </mxCell>
        <mxCell id="collection_1_count" value="Элементов: 12" style="text;html=1;strokeColor=none;fillColor=none;align=left;verticalAlign=middle;whiteSpace=wrap;rounded=0;fontSize=11;" vertex="1" parent="1">
          <mxGeometry x="280" y="720" width="100" height="20" as="geometry" />
        </mxCell>
        <mxCell id="collection_2" value="" style="rounded=1;whiteSpace=wrap;html=1;fillColor=#f9f9f9;strokeColor=#cccccc;" vertex="1" parent="1">
          <mxGeometry x="700" y="640" width="400" height="100" as="geometry" />
        </mxCell>
        <mxCell id="collection_2_title" value="Название коллекции 2" style="text;html=1;strokeColor=none;fillColor=none;align=left;verticalAlign=middle;whiteSpace=wrap;rounded=0;fontStyle=1;fontSize=14;" vertex="1" parent="1">
          <mxGeometry x="720" y="650" width="360" height="20" as="geometry" />
        </mxCell>
        <mxCell id="collection_2_desc" value="Описание коллекции. Краткая информация о том, что включено в эту коллекцию и почему она была создана." style="text;html=1;strokeColor=none;fillColor=none;align=left;verticalAlign=top;whiteSpace=wrap;rounded=0;fontSize=11;" vertex="1" parent="1">
          <mxGeometry x="720" y="680" width="360" height="40" as="geometry" />
        </mxCell>
        <mxCell id="collection_2_count" value="Элементов: 8" style="text;html=1;strokeColor=none;fillColor=none;align=left;verticalAlign=middle;whiteSpace=wrap;rounded=0;fontSize=11;" vertex="1" parent="1">
          <mxGeometry x="720" y="720" width="100" height="20" as="geometry" />
        </mxCell>
        <mxCell id="collection_3" value="" style="rounded=1;whiteSpace=wrap;html=1;fillColor=#f9f9f9;strokeColor=#cccccc;" vertex="1" parent="1">
          <mxGeometry x="260" y="760" width="400" height="100" as="geometry" />
        </mxCell>
        <mxCell id="collection_3_title" value="Название коллекции 3" style="text;html=1;strokeColor=none;fillColor=none;align=left;verticalAlign=middle;whiteSpace=wrap;rounded=0;fontStyle=1;fontSize=14;" vertex="1" parent="1">
          <mxGeometry x="280" y="770" width="360" height="20" as="geometry" />
        </mxCell>
        <mxCell id="collection_3_desc" value="Описание коллекции. Краткая информация о том, что включено в эту коллекцию и почему она была создана." style="text;html=1;strokeColor=none;fillColor=none;align=left;verticalAlign=top;whiteSpace=wrap;rounded=0;fontSize=11;" vertex="1" parent="1">
          <mxGeometry x="280" y="800" width="360" height="40" as="geometry" />
        </mxCell>
        <mxCell id="collection_3_count" value="Элементов: 15" style="text;html=1;strokeColor=none;fillColor=none;align=left;verticalAlign=middle;whiteSpace=wrap;rounded=0;fontSize=11;" vertex="1" parent="1">
          <mxGeometry x="280" y="840" width="100" height="20" as="geometry" />
        </mxCell>
        <mxCell id="collection_4" value="" style="rounded=1;whiteSpace=wrap;html=1;fillColor=#f9f9f9;strokeColor=#cccccc;" vertex="1" parent="1">
          <mxGeometry x="700" y="760" width="400" height="100" as="geometry" />
        </mxCell>
        <mxCell id="collection_4_title" value="Название коллекции 4" style="text;html=1;strokeColor=none;fillColor=none;align=left;verticalAlign=middle;whiteSpace=wrap;rounded=0;fontStyle=1;fontSize=14;" vertex="1" parent="1">
          <mxGeometry x="720" y="770" width="360" height="20" as="geometry" />
        </mxCell>
        <mxCell id="collection_4_desc" value="Описание коллекции. Краткая информация о том, что включено в эту коллекцию и почему она была создана." style="text;html=1;strokeColor=none;fillColor=none;align=left;verticalAlign=top;whiteSpace=wrap;rounded=0;fontSize=11;" vertex="1" parent="1">
          <mxGeometry x="720" y="800" width="360" height="40" as="geometry" />
        </mxCell>
        <mxCell id="collection_4_count" value="Элементов: 6" style="text;html=1;strokeColor=none;fillColor=none;align=left;verticalAlign=middle;whiteSpace=wrap;rounded=0;fontSize=11;" vertex="1" parent="1">
          <mxGeometry x="720" y="840" width="100" height="20" as="geometry" />
        </mxCell>
        <mxCell id="pagination" value="" style="rounded=0;whiteSpace=wrap;html=1;fillColor=#ffffff;strokeColor=#f0f0f0;" vertex="1" parent="1">
          <mxGeometry x="260" y="880" width="840" height="20" as="geometry" />
        </mxCell>
        <mxCell id="page_prev" value="&lt;" style="rounded=1;whiteSpace=wrap;html=1;fillColor=#f5f5f5;strokeColor=#666666;" vertex="1" parent="1">
          <mxGeometry x="580" y="880" width="20" height="20" as="geometry" />
        </mxCell>
        <mxCell id="page_1" value="1" style="rounded=1;whiteSpace=wrap;html=1;fillColor=#e6e6e6;strokeColor=#666666;" vertex="1" parent="1">
          <mxGeometry x="610" y="880" width="20" height="20" as="geometry" />
        </mxCell>
        <mxCell id="page_2" value="2" style="rounded=1;whiteSpace=wrap;html=1;fillColor=#ffffff;strokeColor=#666666;" vertex="1" parent="1">
          <mxGeometry x="640" y="880" width="20" height="20" as="geometry" />
        </mxCell>
        <mxCell id="page_next" value="&gt;" style="rounded=1;whiteSpace=wrap;html=1;fillColor=#f5f5f5;strokeColor=#666666;" vertex="1" parent="1">
          <mxGeometry x="670" y="880" width="20" height="20" as="geometry" />
        </mxCell>
      </root>
    </mxGraphModel>
  </diagram>
</mxfile>